<?xml version="1.0" standalone="no"?>
<!DOCTYPE svg PUBLIC "-//W3C//DTD SVG 20010904//EN"
 "http://www.w3.org/TR/2001/REC-SVG-20010904/DTD/svg10.dtd">
<svg version="1.0" xmlns="http://www.w3.org/2000/svg"
 width="253.000000pt" height="253.000000pt" viewBox="0 0 253.000000 253.000000"
 preserveAspectRatio="xMidYMid meet">
<metadata>
Created by potrace 1.11, written by Peter Selinger 2001-2013
</metadata>
<g transform="translate(0.000000,253.000000) scale(0.100000,-0.100000)"
fill="#000000" stroke="none">
<path d="M470 2275 c-194 -48 -319 -171 -371 -365 -25 -92 -20 -270 11 -359
59 -174 181 -259 425 -296 167 -25 201 -41 223 -104 14 -41 7 -110 -15 -139
-36 -49 -79 -66 -169 -68 -130 -3 -252 33 -311 92 -14 14 -26 24 -27 22 -2 -2
-163 -191 -212 -248 -11 -14 -8 -22 25 -57 121 -128 289 -185 526 -178 171 5
290 51 393 153 104 101 152 236 146 406 -11 314 -140 450 -464 491 -76 10
-163 35 -183 53 -67 59 -52 166 29 221 28 20 48 24 107 24 121 1 187 -18 243
-70 15 -13 30 -21 34 -16 44 47 210 249 210 254 0 4 -23 28 -51 53 -55 50
-173 112 -228 121 -19 3 -39 8 -44 12 -20 12 -243 11 -297 -2z"/>
<path d="M1350 1430 l0 -846 353 1 c293 2 361 4 405 18 163 50 267 164 308
339 3 13 7 70 9 128 5 161 -24 241 -121 335 -24 24 -44 45 -44 47 0 2 16 22
36 43 20 22 47 59 61 82 98 168 52 463 -92 590 -45 40 -140 86 -200 98 -22 5
-192 9 -377 10 l-338 2 0 -847z m625 466 c13 -3 36 -22 50 -40 49 -65 28 -182
-38 -214 -16 -8 -75 -14 -152 -15 -106 -2 -125 0 -126 13 -3 37 -4 246 -2 255
3 11 225 12 268 1z m38 -659 c77 -51 80 -216 4 -259 -21 -13 -306 -29 -308
-18 -3 14 -5 276 -2 285 2 7 55 10 142 10 113 -1 143 -4 164 -18z"/>
</g>
</svg>
